<svg xmlns="http://www.w3.org/2000/svg" viewBox="0 0 36 36"><style>.paper{fill:#eff3e9}.face{fill:#87aa70;stroke:#173e2a}.detail{stroke:#173e2a}.tusk{fill:#fff9e7;stroke:#173e2a}@media(prefers-color-scheme:dark){.paper{fill:#12251a}}</style><rect class="paper" width="36" height="36" rx="9"/><g transform="translate(2 2)" stroke-width="1.7" stroke-linecap="round" stroke-linejoin="round"><path class="face" d="M8 11 2 7l2 12 5 3 3 6h8l3-6 5-3 2-12-6 4-2-6-6-3-6 3Z"/><path class="detail" fill="none" d="m10 13 4 2m8-2-4 2m-5 7h6m-6-3h6m-3-14-2 4 2 2"/><path class="tusk" d="M9 18q-3 7 4 6Zm14 0q3 7-4 6Z"/></g></svg>
